<svg width="243" height="75" viewBox="0 0 243 75" fill="none" xmlns="http://www.w3.org/2000/svg">
<path d="M3.01775 8.64C2.73775 8.92 2.39775 9.06 1.99775 9.06C1.59775 9.06 1.25775 8.92 0.97775 8.64C0.69775 8.352 0.55775 8.012 0.55775 7.62C0.55775 7.228 0.69775 6.892 0.97775 6.612C1.25775 6.324 1.59775 6.18 1.99775 6.18C2.39775 6.18 2.73775 6.324 3.01775 6.612C3.29775 6.892 3.43775 7.228 3.43775 7.62C3.43775 8.012 3.29775 8.352 3.01775 8.64ZM12.62 4.344C13.404 3.528 14.452 3.12 15.764 3.12C17.076 3.12 18.124 3.528 18.908 4.344C19.692 5.16 20.084 6.252 20.084 7.62C20.084 8.988 19.692 10.08 18.908 10.896C18.124 11.712 17.076 12.12 15.764 12.12C14.452 12.12 13.404 11.712 12.62 10.896C11.836 10.08 11.444 8.988 11.444 7.62C11.444 6.252 11.836 5.16 12.62 4.344ZM13.604 10.128C14.148 10.736 14.868 11.04 15.764 11.04C16.66 11.04 17.38 10.736 17.924 10.128C18.468 9.512 18.74 8.676 18.74 7.62C18.74 6.564 18.468 5.732 17.924 5.124C17.38 4.508 16.66 4.2 15.764 4.2C14.868 4.2 14.148 4.508 13.604 5.124C13.06 5.732 12.788 6.564 12.788 7.62C12.788 8.676 13.06 9.512 13.604 10.128ZM26.6713 6.732H24.4993V12H23.2033V6.732H21.0313V5.76H26.6713V6.732ZM34.5144 6.84C35.0664 6.712 35.4904 6.52 35.7864 6.264C36.0824 6.008 36.2304 5.72 36.2304 5.4C36.2304 5.016 36.0824 4.712 35.7864 4.488C35.4904 4.264 35.0664 4.152 34.5144 4.152C33.9704 4.152 33.5544 4.264 33.2664 4.488C32.9864 4.704 32.8464 5.008 32.8464 5.4C32.8464 5.736 32.9864 6.032 33.2664 6.288C33.5544 6.536 33.9704 6.72 34.5144 6.84ZM34.4544 7.86C33.8224 8.012 33.3424 8.24 33.0144 8.544C32.6864 8.84 32.5224 9.172 32.5224 9.54C32.5224 10.02 32.6984 10.4 33.0504 10.68C33.4104 10.952 33.8984 11.088 34.5144 11.088C35.1304 11.088 35.6064 10.952 35.9424 10.68C36.2864 10.4 36.4584 10.02 36.4584 9.54C36.4584 8.7 35.7904 8.14 34.4544 7.86ZM36.8904 11.436C36.3224 11.892 35.5304 12.12 34.5144 12.12C33.4984 12.12 32.7024 11.892 32.1264 11.436C31.5584 10.98 31.2744 10.368 31.2744 9.6C31.2744 9.136 31.4344 8.708 31.7544 8.316C32.0744 7.916 32.5144 7.608 33.0744 7.392V7.368C32.5944 7.16 32.2224 6.876 31.9584 6.516C31.7024 6.148 31.5744 5.736 31.5744 5.28C31.5744 4.632 31.8344 4.112 32.3544 3.72C32.8744 3.32 33.5944 3.12 34.5144 3.12C35.4344 3.12 36.1544 3.32 36.6744 3.72C37.1944 4.112 37.4544 4.632 37.4544 5.28C37.4544 6.176 36.9544 6.832 35.9544 7.248V7.272C37.1544 7.68 37.7544 8.456 37.7544 9.6C37.7544 10.368 37.4664 10.98 36.8904 11.436ZM44.2555 11.04H47.0995V6.72H44.9395C44.9395 8.384 44.9115 9.4 44.8555 9.768C44.7995 10.128 44.5995 10.552 44.2555 11.04ZM42.8395 11.04C43.0155 10.816 43.1395 10.66 43.2115 10.572C43.2915 10.476 43.3755 10.328 43.4635 10.128C43.5515 9.928 43.6035 9.776 43.6195 9.672C43.6435 9.568 43.6675 9.348 43.6915 9.012C43.7235 8.668 43.7395 8.36 43.7395 8.088C43.7395 7.808 43.7395 7.352 43.7395 6.72V5.76H48.2995V11.04H49.1395V13.44H47.9395V12H43.4995V13.44H42.2995V11.04H42.8395ZM50.8381 6.516C51.3901 5.932 52.1181 5.64 53.0221 5.64C53.9261 5.64 54.6501 5.932 55.1941 6.516C55.7461 7.1 56.0221 7.888 56.0221 8.88C56.0221 9.872 55.7461 10.66 55.1941 11.244C54.6501 11.828 53.9261 12.12 53.0221 12.12C52.1181 12.12 51.3901 11.828 50.8381 11.244C50.2941 10.66 50.0221 9.872 50.0221 8.88C50.0221 7.888 50.2941 7.1 50.8381 6.516ZM51.7261 10.56C52.0461 10.96 52.4781 11.16 53.0221 11.16C53.5661 11.16 53.9981 10.96 54.3181 10.56C54.6381 10.16 54.7981 9.6 54.7981 8.88C54.7981 8.16 54.6381 7.6 54.3181 7.2C53.9981 6.8 53.5661 6.6 53.0221 6.6C52.4781 6.6 52.0461 6.8 51.7261 7.2C51.4061 7.6 51.2461 8.16 51.2461 8.88C51.2461 9.6 51.4061 10.16 51.7261 10.56ZM63.6913 12V4.8H63.6673L61.4113 6.84L60.9313 5.76L63.6913 3.24H65.0113V12H63.6913ZM73.8898 4.32H70.2298L70.1098 6.72H70.1338C70.5658 6.48 71.0578 6.36 71.6098 6.36C72.4418 6.36 73.0898 6.596 73.5538 7.068C74.0178 7.54 74.2498 8.204 74.2498 9.06C74.2498 10.068 73.9658 10.832 73.3978 11.352C72.8298 11.864 71.9938 12.12 70.8898 12.12C70.0658 12.12 69.3058 11.94 68.6098 11.58L68.9098 10.5C69.6218 10.86 70.2818 11.04 70.8898 11.04C72.2498 11.04 72.9298 10.38 72.9298 9.06C72.9298 7.948 72.4098 7.392 71.3698 7.392C70.7778 7.392 70.2978 7.568 69.9298 7.92H68.7898L69.0298 3.24H73.8898V4.32ZM84.0149 7.044C83.4949 6.764 82.9549 6.624 82.3949 6.624C81.7789 6.624 81.2949 6.82 80.9429 7.212C80.5909 7.604 80.4149 8.16 80.4149 8.88C80.4149 9.584 80.5989 10.14 80.9669 10.548C81.3429 10.956 81.8189 11.16 82.3949 11.16C82.9549 11.16 83.4949 11.02 84.0149 10.74L84.3149 11.7C83.6749 11.98 83.0149 12.12 82.3349 12.12C81.3909 12.12 80.6229 11.828 80.0309 11.244C79.4469 10.66 79.1549 9.872 79.1549 8.88C79.1549 7.864 79.4349 7.072 79.9949 6.504C80.5549 5.928 81.3349 5.64 82.3349 5.64C83.0149 5.64 83.6749 5.78 84.3149 6.06L84.0149 7.044ZM87.1745 5.76V10.296H87.1985L90.2705 5.76H91.5665V12H90.3185V7.464H90.2945L87.2345 12H85.9265V5.76H87.1745ZM99.2016 7.44L97.4016 10.296H96.3336L94.5336 7.44H94.5096V12H93.2976V5.76H94.6896L96.8616 9.396H96.8736L99.0456 5.76H100.45V12H99.2136V7.44H99.2016ZM103.428 11.196C103.692 11.236 103.948 11.256 104.196 11.256C105.34 11.256 105.912 10.876 105.912 10.116C105.912 9.428 105.316 9.084 104.124 9.084H103.428V11.196ZM103.428 8.292H104.1C104.588 8.292 104.964 8.212 105.228 8.052C105.5 7.884 105.636 7.652 105.636 7.356C105.636 6.788 105.14 6.504 104.148 6.504C103.924 6.504 103.684 6.524 103.428 6.564V8.292ZM107.124 10.2C107.124 11.456 106.132 12.084 104.148 12.084C103.476 12.084 102.82 12.04 102.18 11.952V5.808C102.78 5.72 103.4 5.676 104.04 5.676C105.888 5.676 106.812 6.188 106.812 7.212C106.812 7.572 106.684 7.88 106.428 8.136C106.18 8.384 105.832 8.548 105.384 8.628V8.64C105.936 8.72 106.364 8.9 106.668 9.18C106.972 9.452 107.124 9.792 107.124 10.2ZM108.893 6.516C109.445 5.932 110.173 5.64 111.077 5.64C111.981 5.64 112.705 5.932 113.249 6.516C113.801 7.1 114.077 7.888 114.077 8.88C114.077 9.872 113.801 10.66 113.249 11.244C112.705 11.828 111.981 12.12 111.077 12.12C110.173 12.12 109.445 11.828 108.893 11.244C108.349 10.66 108.077 9.872 108.077 8.88C108.077 7.888 108.349 7.1 108.893 6.516ZM109.781 10.56C110.101 10.96 110.533 11.16 111.077 11.16C111.621 11.16 112.053 10.96 112.373 10.56C112.693 10.16 112.853 9.6 112.853 8.88C112.853 8.16 112.693 7.6 112.373 7.2C112.053 6.8 111.621 6.6 111.077 6.6C110.533 6.6 110.101 6.8 109.781 7.2C109.461 7.6 109.301 8.16 109.301 8.88C109.301 9.6 109.461 10.16 109.781 10.56ZM121.207 12H120.007V6.744H117.523V8.976C117.523 10.152 117.335 10.956 116.959 11.388C116.583 11.812 115.859 12.056 114.787 12.12L114.727 11.136C115.183 11.112 115.519 11.036 115.735 10.908C115.959 10.78 116.115 10.556 116.203 10.236C116.299 9.916 116.347 9.424 116.347 8.76V5.76H121.207V12ZM123.33 6.516C123.882 5.932 124.61 5.64 125.514 5.64C126.418 5.64 127.142 5.932 127.686 6.516C128.238 7.1 128.514 7.888 128.514 8.88C128.514 9.872 128.238 10.66 127.686 11.244C127.142 11.828 126.418 12.12 125.514 12.12C124.61 12.12 123.882 11.828 123.33 11.244C122.786 10.66 122.514 9.872 122.514 8.88C122.514 7.888 122.786 7.1 123.33 6.516ZM124.218 10.56C124.538 10.96 124.97 11.16 125.514 11.16C126.058 11.16 126.49 10.96 126.81 10.56C127.13 10.16 127.29 9.6 127.29 8.88C127.29 8.16 127.13 7.6 126.81 7.2C126.49 6.8 126.058 6.6 125.514 6.6C124.97 6.6 124.538 6.8 124.218 7.2C123.898 7.6 123.738 8.16 123.738 8.88C123.738 9.6 123.898 10.16 124.218 10.56ZM131.073 11.196C131.337 11.236 131.593 11.256 131.841 11.256C132.985 11.256 133.557 10.876 133.557 10.116C133.557 9.428 132.961 9.084 131.769 9.084H131.073V11.196ZM131.073 8.292H131.745C132.233 8.292 132.609 8.212 132.873 8.052C133.145 7.884 133.281 7.652 133.281 7.356C133.281 6.788 132.785 6.504 131.793 6.504C131.569 6.504 131.329 6.524 131.073 6.564V8.292ZM134.769 10.2C134.769 11.456 133.777 12.084 131.793 12.084C131.121 12.084 130.465 12.04 129.825 11.952V5.808C130.425 5.72 131.045 5.676 131.685 5.676C133.533 5.676 134.457 6.188 134.457 7.212C134.457 7.572 134.329 7.88 134.073 8.136C133.825 8.384 133.477 8.548 133.029 8.628V8.64C133.581 8.72 134.009 8.9 134.313 9.18C134.617 9.452 134.769 9.792 134.769 10.2ZM138.84 12.84H150.84V0.84H138.84V12.84ZM3.01775 28.64C2.73775 28.92 2.39775 29.06 1.99775 29.06C1.59775 29.06 1.25775 28.92 0.97775 28.64C0.69775 28.352 0.55775 28.012 0.55775 27.62C0.55775 27.228 0.69775 26.892 0.97775 26.612C1.25775 26.324 1.59775 26.18 1.99775 26.18C2.39775 26.18 2.73775 26.324 3.01775 26.612C3.29775 26.892 3.43775 27.228 3.43775 27.62C3.43775 28.012 3.29775 28.352 3.01775 28.64ZM16.004 24.2C15.036 24.2 14.256 24.512 13.664 25.136C13.08 25.76 12.788 26.588 12.788 27.62C12.788 28.66 13.088 29.492 13.688 30.116C14.288 30.732 15.06 31.04 16.004 31.04C16.78 31.04 17.52 30.82 18.224 30.38L18.644 31.364C17.844 31.868 16.924 32.12 15.884 32.12C14.548 32.12 13.472 31.716 12.656 30.908C11.848 30.092 11.444 28.996 11.444 27.62C11.444 26.244 11.844 25.152 12.644 24.344C13.444 23.528 14.524 23.12 15.884 23.12C16.924 23.12 17.844 23.372 18.644 23.876L18.224 24.86C17.52 24.42 16.78 24.2 16.004 24.2ZM25.5346 26.732H23.3626V32H22.0666V26.732H19.8946V25.76H25.5346V26.732ZM28.0872 26.66C28.5512 25.98 29.1952 25.64 30.0192 25.64C30.8112 25.64 31.4272 25.916 31.8672 26.468C32.3152 27.012 32.5392 27.816 32.5392 28.88C32.5392 29.928 32.3072 30.732 31.8432 31.292C31.3872 31.844 30.7792 32.12 30.0192 32.12C29.2192 32.12 28.5872 31.82 28.1232 31.22H28.0992V34.64H26.8992V25.76H28.0392L28.0632 26.66H28.0872ZM31.3632 28.88C31.3632 28.12 31.2192 27.552 30.9312 27.176C30.6432 26.792 30.2392 26.6 29.7192 26.6C29.2472 26.6 28.8592 26.8 28.5552 27.2C28.2512 27.592 28.0992 28.132 28.0992 28.82V28.94C28.0992 29.636 28.2512 30.18 28.5552 30.572C28.8592 30.964 29.2472 31.16 29.7192 31.16C30.2152 31.16 30.6112 30.964 30.9072 30.572C31.2112 30.18 31.3632 29.616 31.3632 28.88ZM34.303 26.516C34.855 25.932 35.583 25.64 36.487 25.64C37.391 25.64 38.115 25.932 38.659 26.516C39.211 27.1 39.487 27.888 39.487 28.88C39.487 29.872 39.211 30.66 38.659 31.244C38.115 31.828 37.391 32.12 36.487 32.12C35.583 32.12 34.855 31.828 34.303 31.244C33.759 30.66 33.487 29.872 33.487 28.88C33.487 27.888 33.759 27.1 34.303 26.516ZM35.191 30.56C35.511 30.96 35.943 31.16 36.487 31.16C37.031 31.16 37.463 30.96 37.783 30.56C38.103 30.16 38.263 29.6 38.263 28.88C38.263 28.16 38.103 27.6 37.783 27.2C37.463 26.8 37.031 26.6 36.487 26.6C35.943 26.6 35.511 26.8 35.191 27.2C34.871 27.6 34.711 28.16 34.711 28.88C34.711 29.6 34.871 30.16 35.191 30.56ZM44.6976 29.984C44.2096 30.208 43.6376 30.32 42.9816 30.32C42.1256 30.32 41.5256 30.164 41.1816 29.852C40.8456 29.54 40.6776 28.996 40.6776 28.22V25.76H41.8536V27.968C41.8536 28.512 41.9456 28.876 42.1296 29.06C42.3216 29.244 42.6776 29.336 43.1976 29.336C43.7816 29.336 44.2816 29.224 44.6976 29V25.76H45.8976V32H44.6976V29.984ZM48.9136 29.144V32H47.6296V25.76H48.9136V28.232H51.9496V25.76H53.2216V32H51.9496V29.144H48.9136ZM60.8938 32V25.76H62.0578V32H60.8938ZM54.9538 25.76H56.1538V27.584C56.4338 27.528 56.7738 27.5 57.1738 27.5C58.0858 27.5 58.7818 27.7 59.2618 28.1C59.7498 28.492 59.9938 29.032 59.9938 29.72C59.9938 30.528 59.7418 31.132 59.2378 31.532C58.7418 31.924 57.9738 32.12 56.9338 32.12C56.2378 32.12 55.5778 32.06 54.9538 31.94V25.76ZM56.1538 28.544V31.064C56.4498 31.128 56.7378 31.16 57.0178 31.16C57.6338 31.16 58.0858 31.044 58.3738 30.812C58.6698 30.572 58.8178 30.208 58.8178 29.72C58.8178 29.32 58.6658 29.012 58.3618 28.796C58.0578 28.572 57.6018 28.46 56.9938 28.46C56.6658 28.46 56.3858 28.488 56.1538 28.544ZM64.5938 28.424H67.9658C67.9578 27.832 67.8058 27.376 67.5098 27.056C67.2218 26.736 66.8218 26.576 66.3098 26.576C65.7978 26.576 65.3858 26.74 65.0738 27.068C64.7698 27.388 64.6098 27.84 64.5938 28.424ZM64.5938 29.36C64.6178 29.92 64.8098 30.364 65.1698 30.692C65.5378 31.02 65.9978 31.184 66.5498 31.184C67.1498 31.184 67.7498 31.032 68.3498 30.728L68.6498 31.64C67.9538 31.96 67.2138 32.12 66.4298 32.12C65.5338 32.12 64.7978 31.828 64.2218 31.244C63.6538 30.652 63.3698 29.864 63.3698 28.88C63.3698 27.872 63.6338 27.08 64.1618 26.504C64.6978 25.928 65.4138 25.64 66.3098 25.64C67.1978 25.64 67.8898 25.912 68.3858 26.456C68.8818 27 69.1298 27.788 69.1298 28.82C69.1298 28.94 69.1218 29.12 69.1058 29.36H64.5938ZM75.3034 25.76V30.296H75.3274L78.3994 25.76H79.6954V32H78.4474V27.464H78.4234L75.3634 32H74.0554V25.76H75.3034ZM84.989 25.76H90.449V32H89.249V26.744H86.189V32H84.989V25.76ZM93.3606 26.66C93.8246 25.98 94.4686 25.64 95.2926 25.64C96.0846 25.64 96.7006 25.916 97.1406 26.468C97.5886 27.012 97.8126 27.816 97.8126 28.88C97.8126 29.928 97.5806 30.732 97.1166 31.292C96.6606 31.844 96.0526 32.12 95.2926 32.12C94.4926 32.12 93.8606 31.82 93.3966 31.22H93.3726V34.64H92.1726V25.76H93.3126L93.3366 26.66H93.3606ZM96.6366 28.88C96.6366 28.12 96.4926 27.552 96.2046 27.176C95.9166 26.792 95.5126 26.6 94.9926 26.6C94.5206 26.6 94.1326 26.8 93.8286 27.2C93.5246 27.592 93.3726 28.132 93.3726 28.82V28.94C93.3726 29.636 93.5246 30.18 93.8286 30.572C94.1326 30.964 94.5206 31.16 94.9926 31.16C95.4886 31.16 95.8846 30.964 96.1806 30.572C96.4846 30.18 96.6366 29.616 96.6366 28.88ZM99.5764 26.516C100.128 25.932 100.856 25.64 101.76 25.64C102.664 25.64 103.388 25.932 103.932 26.516C104.484 27.1 104.76 27.888 104.76 28.88C104.76 29.872 104.484 30.66 103.932 31.244C103.388 31.828 102.664 32.12 101.76 32.12C100.856 32.12 100.128 31.828 99.5764 31.244C99.0324 30.66 98.7604 29.872 98.7604 28.88C98.7604 27.888 99.0324 27.1 99.5764 26.516ZM100.464 30.56C100.784 30.96 101.216 31.16 101.76 31.16C102.304 31.16 102.736 30.96 103.056 30.56C103.376 30.16 103.536 29.6 103.536 28.88C103.536 28.16 103.376 27.6 103.056 27.2C102.736 26.8 102.304 26.6 101.76 26.6C101.216 26.6 100.784 26.8 100.464 27.2C100.144 27.6 99.9844 28.16 99.9844 28.88C99.9844 29.6 100.144 30.16 100.464 30.56ZM106.071 25.76H111.531V32H110.331V26.744H107.271V32H106.071V25.76ZM114.503 25.76V30.296H114.527L117.599 25.76H118.895V32H117.647V27.464H117.623L114.563 32H113.255V25.76H114.503ZM125.066 27.044C124.546 26.764 124.006 26.624 123.446 26.624C122.83 26.624 122.346 26.82 121.994 27.212C121.642 27.604 121.466 28.16 121.466 28.88C121.466 29.584 121.65 30.14 122.018 30.548C122.394 30.956 122.87 31.16 123.446 31.16C124.006 31.16 124.546 31.02 125.066 30.74L125.366 31.7C124.726 31.98 124.066 32.12 123.386 32.12C122.442 32.12 121.674 31.828 121.082 31.244C120.498 30.66 120.206 29.872 120.206 28.88C120.206 27.864 120.486 27.072 121.046 26.504C121.606 25.928 122.386 25.64 123.386 25.64C124.066 25.64 124.726 25.78 125.366 26.06L125.066 27.044ZM128.261 29.144V32H126.977V25.76H128.261V28.232H131.297V25.76H132.569V32H131.297V29.144H128.261ZM140.242 32V25.76H141.406V32H140.242ZM134.302 25.76H135.502V27.584C135.782 27.528 136.122 27.5 136.521 27.5C137.434 27.5 138.13 27.7 138.61 28.1C139.098 28.492 139.342 29.032 139.342 29.72C139.342 30.528 139.09 31.132 138.586 31.532C138.09 31.924 137.322 32.12 136.282 32.12C135.586 32.12 134.926 32.06 134.302 31.94V25.76ZM135.502 28.544V31.064C135.798 31.128 136.086 31.16 136.366 31.16C136.982 31.16 137.434 31.044 137.722 30.812C138.018 30.572 138.166 30.208 138.166 29.72C138.166 29.32 138.014 29.012 137.71 28.796C137.406 28.572 136.95 28.46 136.342 28.46C136.014 28.46 135.734 28.488 135.502 28.544ZM143.941 28.424H147.313C147.305 27.832 147.153 27.376 146.857 27.056C146.569 26.736 146.169 26.576 145.657 26.576C145.145 26.576 144.733 26.74 144.421 27.068C144.117 27.388 143.957 27.84 143.941 28.424ZM143.941 29.36C143.965 29.92 144.157 30.364 144.517 30.692C144.885 31.02 145.345 31.184 145.897 31.184C146.497 31.184 147.097 31.032 147.697 30.728L147.997 31.64C147.301 31.96 146.561 32.12 145.777 32.12C144.881 32.12 144.145 31.828 143.569 31.244C143.001 30.652 142.717 29.864 142.717 28.88C142.717 27.872 142.981 27.08 143.509 26.504C144.045 25.928 144.761 25.64 145.657 25.64C146.545 25.64 147.237 25.912 147.733 26.456C148.229 27 148.477 27.788 148.477 28.82C148.477 28.94 148.469 29.12 148.453 29.36H143.941ZM158.707 23V23.96C158.091 24.04 157.483 24.08 156.883 24.08C155.987 24.08 155.371 24.24 155.035 24.56C154.707 24.872 154.543 25.452 154.543 26.3V26.84H154.567C155.015 26.2 155.667 25.88 156.523 25.88C157.227 25.88 157.811 26.164 158.275 26.732C158.747 27.3 158.983 28.056 158.983 29C158.983 30.008 158.743 30.78 158.263 31.316C157.791 31.852 157.111 32.12 156.223 32.12C155.295 32.12 154.583 31.844 154.087 31.292C153.591 30.732 153.343 29.928 153.343 28.88V26.36C153.343 25.216 153.623 24.392 154.183 23.888C154.751 23.376 155.651 23.12 156.883 23.12C157.515 23.12 158.123 23.08 158.707 23ZM157.807 29C157.807 28.328 157.659 27.8 157.363 27.416C157.067 27.032 156.687 26.84 156.223 26.84C155.719 26.84 155.311 27.028 154.999 27.404C154.695 27.772 154.543 28.284 154.543 28.94V29.06C154.543 29.7 154.695 30.212 154.999 30.596C155.303 30.972 155.691 31.16 156.163 31.16C156.683 31.16 157.087 30.976 157.375 30.608C157.663 30.24 157.807 29.704 157.807 29ZM161.452 25.76L163.18 30.56H163.204L164.812 25.76H166.108L163.768 32C163.36 33.088 162.912 33.82 162.424 34.196C161.944 34.572 161.232 34.76 160.288 34.76L160.228 33.776C160.884 33.776 161.372 33.656 161.692 33.416C162.012 33.184 162.304 32.712 162.568 32L160.108 25.76H161.452ZM168.656 28.328L171.236 25.76H172.748L169.652 28.748L172.856 32H171.344L168.656 29.18H168.632V32H167.36V25.76H168.632V28.328H168.656ZM175.475 31.196C175.739 31.236 175.995 31.256 176.243 31.256C177.387 31.256 177.959 30.876 177.959 30.116C177.959 29.428 177.363 29.084 176.171 29.084H175.475V31.196ZM175.475 28.292H176.147C176.635 28.292 177.011 28.212 177.275 28.052C177.547 27.884 177.683 27.652 177.683 27.356C177.683 26.788 177.187 26.504 176.195 26.504C175.971 26.504 175.731 26.524 175.475 26.564V28.292ZM179.171 30.2C179.171 31.456 178.179 32.084 176.195 32.084C175.523 32.084 174.867 32.04 174.227 31.952V25.808C174.827 25.72 175.447 25.676 176.087 25.676C177.935 25.676 178.859 26.188 178.859 27.212C178.859 27.572 178.731 27.88 178.475 28.136C178.227 28.384 177.879 28.548 177.431 28.628V28.64C177.983 28.72 178.411 28.9 178.715 29.18C179.019 29.452 179.171 29.792 179.171 30.2ZM186.484 32V25.76H187.648V32H186.484ZM180.544 25.76H181.744V27.584C182.024 27.528 182.364 27.5 182.764 27.5C183.676 27.5 184.372 27.7 184.852 28.1C185.34 28.492 185.584 29.032 185.584 29.72C185.584 30.528 185.332 31.132 184.828 31.532C184.332 31.924 183.564 32.12 182.524 32.12C181.828 32.12 181.168 32.06 180.544 31.94V25.76ZM181.744 28.544V31.064C182.04 31.128 182.328 31.16 182.608 31.16C183.224 31.16 183.676 31.044 183.964 30.812C184.26 30.572 184.408 30.208 184.408 29.72C184.408 29.32 184.256 29.012 183.952 28.796C183.648 28.572 183.192 28.46 182.584 28.46C182.256 28.46 181.976 28.488 181.744 28.544ZM192.078 32.84H204.078V20.84H192.078V32.84ZM3.01775 48.64C2.73775 48.92 2.39775 49.06 1.99775 49.06C1.59775 49.06 1.25775 48.92 0.97775 48.64C0.69775 48.352 0.55775 48.012 0.55775 47.62C0.55775 47.228 0.69775 46.892 0.97775 46.612C1.25775 46.324 1.59775 46.18 1.99775 46.18C2.39775 46.18 2.73775 46.324 3.01775 46.612C3.29775 46.892 3.43775 47.228 3.43775 47.62C3.43775 48.012 3.29775 48.352 3.01775 48.64ZM3.01775 68.64C2.73775 68.92 2.39775 69.06 1.99775 69.06C1.59775 69.06 1.25775 68.92 0.97775 68.64C0.69775 68.352 0.55775 68.012 0.55775 67.62C0.55775 67.228 0.69775 66.892 0.97775 66.612C1.25775 66.324 1.59775 66.18 1.99775 66.18C2.39775 66.18 2.73775 66.324 3.01775 66.612C3.29775 66.892 3.43775 67.228 3.43775 67.62C3.43775 68.012 3.29775 68.352 3.01775 68.64ZM11.984 72V63.24H13.256L16.148 68.4H16.172L19.064 63.24H20.384V72H19.064V65.52H19.04L16.76 69.6H15.56L13.28 65.52H13.256V72H11.984ZM23.4831 65.76V70.296H23.5071L26.5791 65.76H27.8751V72H26.6271V67.464H26.6031L23.5431 72H22.2351V65.76H23.4831ZM30.8902 69.144V72H29.6062V65.76H30.8902V68.232H33.9262V65.76H35.1982V72H33.9262V69.144H30.8902ZM38.1784 65.76V70.296H38.2024L41.2744 65.76H42.5704V72H41.3224V67.464H41.2984L38.2384 72H36.9304V65.76H38.1784ZM50.2055 67.44L48.4055 70.296H47.3375L45.5375 67.44H45.5135V72H44.3015V65.76H45.6935L47.8655 69.396H47.8775L50.0495 65.76H51.4535V72H50.2175V67.44H50.2055ZM54.1083 65.76L55.8363 70.56H55.8603L57.4683 65.76H58.7643L56.4243 72C56.0163 73.088 55.5683 73.82 55.0803 74.196C54.6003 74.572 53.8883 74.76 52.9443 74.76L52.8843 73.776C53.5403 73.776 54.0283 73.656 54.3483 73.416C54.6683 73.184 54.9603 72.712 55.2243 72L52.7643 65.76H54.1083ZM65.9203 67.44L64.1203 70.296H63.0523L61.2523 67.44H61.2283V72H60.0163V65.76H61.4083L63.5803 69.396H63.5923L65.7643 65.76H67.1683V72H65.9323V67.44H65.9203ZM75.2577 72V64.8H75.2337L72.9777 66.84L72.4977 65.76L75.2577 63.24H76.5777V72H75.2577ZM88.0228 67.044C87.5028 66.764 86.9628 66.624 86.4028 66.624C85.7868 66.624 85.3028 66.82 84.9508 67.212C84.5988 67.604 84.4228 68.16 84.4228 68.88C84.4228 69.584 84.6068 70.14 84.9748 70.548C85.3508 70.956 85.8268 71.16 86.4028 71.16C86.9628 71.16 87.5028 71.02 88.0228 70.74L88.3228 71.7C87.6828 71.98 87.0228 72.12 86.3428 72.12C85.3988 72.12 84.6308 71.828 84.0388 71.244C83.4548 70.66 83.1628 69.872 83.1628 68.88C83.1628 67.864 83.4428 67.072 84.0028 66.504C84.5628 65.928 85.3428 65.64 86.3428 65.64C87.0228 65.64 87.6828 65.78 88.3228 66.06L88.0228 67.044ZM89.9343 65.76H95.3943V72H94.1943V66.744H91.1343V72H89.9343V65.76ZM97.9219 68.424H101.294C101.286 67.832 101.134 67.376 100.838 67.056C100.55 66.736 100.15 66.576 99.6379 66.576C99.1259 66.576 98.7139 66.74 98.4019 67.068C98.0979 67.388 97.9379 67.84 97.9219 68.424ZM97.9219 69.36C97.9459 69.92 98.1379 70.364 98.4979 70.692C98.8659 71.02 99.3259 71.184 99.8779 71.184C100.478 71.184 101.078 71.032 101.678 70.728L101.978 71.64C101.282 71.96 100.542 72.12 99.7579 72.12C98.8619 72.12 98.1259 71.828 97.5499 71.244C96.9819 70.652 96.6979 69.864 96.6979 68.88C96.6979 67.872 96.9619 67.08 97.4899 66.504C98.0259 65.928 98.7419 65.64 99.6379 65.64C100.526 65.64 101.218 65.912 101.714 66.456C102.21 67 102.458 67.788 102.458 68.82C102.458 68.94 102.45 69.12 102.434 69.36H97.9219ZM109.281 71.016H110.361V73.44H109.281V72H103.821V65.76H105.021V71.016H108.081V65.76H109.281V71.016ZM116.054 67.044C115.534 66.764 114.994 66.624 114.434 66.624C113.818 66.624 113.334 66.82 112.982 67.212C112.63 67.604 112.454 68.16 112.454 68.88C112.454 69.584 112.638 70.14 113.006 70.548C113.382 70.956 113.858 71.16 114.434 71.16C114.994 71.16 115.534 71.02 116.054 70.74L116.354 71.7C115.714 71.98 115.054 72.12 114.374 72.12C113.43 72.12 112.662 71.828 112.07 71.244C111.486 70.66 111.194 69.872 111.194 68.88C111.194 67.864 111.474 67.072 112.034 66.504C112.594 65.928 113.374 65.64 114.374 65.64C115.054 65.64 115.714 65.78 116.354 66.06L116.054 67.044ZM119.214 65.76V70.296H119.238L122.31 65.76H123.606V72H122.358V67.464H122.334L119.274 72H117.966V65.76H119.214ZM131.241 67.44L129.441 70.296H128.373L126.573 67.44H126.549V72H125.337V65.76H126.729L128.901 69.396H128.913L131.085 65.76H132.489V72H131.253V67.44H131.241ZM135.467 71.196C135.731 71.236 135.987 71.256 136.235 71.256C137.379 71.256 137.951 70.876 137.951 70.116C137.951 69.428 137.355 69.084 136.163 69.084H135.467V71.196ZM135.467 68.292H136.139C136.627 68.292 137.003 68.212 137.267 68.052C137.539 67.884 137.675 67.652 137.675 67.356C137.675 66.788 137.179 66.504 136.187 66.504C135.963 66.504 135.723 66.524 135.467 66.564V68.292ZM139.163 70.2C139.163 71.456 138.171 72.084 136.187 72.084C135.515 72.084 134.859 72.04 134.219 71.952V65.808C134.819 65.72 135.439 65.676 136.079 65.676C137.927 65.676 138.851 66.188 138.851 67.212C138.851 67.572 138.723 67.88 138.467 68.136C138.219 68.384 137.871 68.548 137.423 68.628V68.64C137.975 68.72 138.403 68.9 138.707 69.18C139.011 69.452 139.163 69.792 139.163 70.2ZM140.932 66.516C141.484 65.932 142.212 65.64 143.116 65.64C144.02 65.64 144.744 65.932 145.288 66.516C145.84 67.1 146.116 67.888 146.116 68.88C146.116 69.872 145.84 70.66 145.288 71.244C144.744 71.828 144.02 72.12 143.116 72.12C142.212 72.12 141.484 71.828 140.932 71.244C140.388 70.66 140.116 69.872 140.116 68.88C140.116 67.888 140.388 67.1 140.932 66.516ZM141.82 70.56C142.14 70.96 142.572 71.16 143.116 71.16C143.66 71.16 144.092 70.96 144.412 70.56C144.732 70.16 144.892 69.6 144.892 68.88C144.892 68.16 144.732 67.6 144.412 67.2C144.092 66.8 143.66 66.6 143.116 66.6C142.572 66.6 142.14 66.8 141.82 67.2C141.5 67.6 141.34 68.16 141.34 68.88C141.34 69.6 141.5 70.16 141.82 70.56ZM153.247 72H152.047V66.744H149.562V68.976C149.562 70.152 149.375 70.956 148.999 71.388C148.623 71.812 147.899 72.056 146.827 72.12L146.767 71.136C147.223 71.112 147.559 71.036 147.775 70.908C147.999 70.78 148.155 70.556 148.243 70.236C148.339 69.916 148.387 69.424 148.387 68.76V65.76H153.247V72ZM159.736 68.304C159.736 70.496 160.516 72.348 162.076 73.86H160.876C160.108 73.156 159.516 72.324 159.1 71.364C158.684 70.404 158.476 69.384 158.476 68.304C158.476 67.224 158.684 66.208 159.1 65.256C159.516 64.296 160.108 63.464 160.876 62.76H162.076C160.516 64.272 159.736 66.12 159.736 68.304ZM164.166 63.24H165.726L165.546 69.48H164.346L164.166 63.24ZM164.226 72V70.44H165.666V72H164.226ZM168.829 70.2H170.509L169.189 73.32H167.989L168.829 70.2ZM175.679 62.76H176.999L176.819 65.88H175.859L175.679 62.76ZM177.959 62.76H179.279L179.099 65.88H178.139L177.959 62.76ZM181.602 70.2H183.282L181.962 73.32H180.762L181.602 70.2ZM188.212 69.84V68.808H189.616L190.084 66.192H188.812V65.16H190.276L190.612 63.24H191.812L191.476 65.16H192.916L193.252 63.24H194.452L194.116 65.16H195.292V66.192H193.924L193.456 68.808H194.692V69.84H193.276L192.892 72H191.692L192.076 69.84H190.636L190.252 72H189.052L189.436 69.84H188.212ZM192.724 66.192H191.284L190.816 68.808H192.256L192.724 66.192ZM197.376 70.2H199.056L197.736 73.32H196.536L197.376 70.2ZM207.55 73.02H206.542V71.808C205.662 71.76 204.83 71.544 204.046 71.16L204.346 70.104C205.058 70.488 205.79 70.704 206.542 70.752V67.92C205.638 67.648 204.994 67.324 204.61 66.948C204.234 66.564 204.046 66.088 204.046 65.52C204.046 64.912 204.25 64.428 204.658 64.068C205.074 63.7 205.702 63.488 206.542 63.432V62.22H207.55V63.432C208.35 63.48 209.102 63.636 209.806 63.9L209.506 64.956C208.882 64.7 208.23 64.548 207.55 64.5V67.056C208.51 67.328 209.166 67.648 209.518 68.016C209.87 68.384 210.046 68.892 210.046 69.54C210.046 70.188 209.834 70.708 209.41 71.1C208.994 71.484 208.374 71.716 207.55 71.796V73.02ZM207.55 70.716C208.374 70.588 208.786 70.196 208.786 69.54C208.786 69.196 208.698 68.928 208.522 68.736C208.354 68.544 208.03 68.368 207.55 68.208V70.716ZM206.542 64.5C206.094 64.548 205.77 64.656 205.57 64.824C205.378 64.992 205.282 65.224 205.282 65.52C205.282 65.816 205.374 66.06 205.558 66.252C205.75 66.444 206.078 66.616 206.542 66.768V64.5ZM211.897 72V70.2H213.457V72H211.897ZM215.67 72V70.2H217.23V72H215.67ZM219.444 72V70.2H221.004V72H219.444ZM222.617 62.76H223.817C224.585 63.464 225.177 64.296 225.593 65.256C226.009 66.208 226.217 67.224 226.217 68.304C226.217 69.384 226.009 70.404 225.593 71.364C225.177 72.324 224.585 73.156 223.817 73.86H222.617C224.177 72.348 224.957 70.496 224.957 68.304C224.957 66.12 224.177 64.272 222.617 62.76ZM230.586 72.84H242.586V60.84H230.586V72.84Z" fill="#1BA228"/>
<path d="M11.984 52V43.24H13.256L16.148 48.4H16.172L19.064 43.24H20.384V52H19.064V45.52H19.04L16.76 49.6H15.56L13.28 45.52H13.256V52H11.984ZM23.4831 45.76V50.296H23.5071L26.5791 45.76H27.8751V52H26.6271V47.464H26.6031L23.5431 52H22.2351V45.76H23.4831ZM30.8902 49.144V52H29.6062V45.76H30.8902V48.232H33.9262V45.76H35.1982V52H33.9262V49.144H30.8902ZM38.1784 45.76V50.296H38.2024L41.2744 45.76H42.5704V52H41.3224V47.464H41.2984L38.2384 52H36.9304V45.76H38.1784ZM50.2055 47.44L48.4055 50.296H47.3375L45.5375 47.44H45.5135V52H44.3015V45.76H45.6935L47.8655 49.396H47.8775L50.0495 45.76H51.4535V52H50.2175V47.44H50.2055ZM54.1083 45.76L55.8363 50.56H55.8603L57.4683 45.76H58.7643L56.4243 52C56.0163 53.088 55.5683 53.82 55.0803 54.196C54.6003 54.572 53.8883 54.76 52.9443 54.76L52.8843 53.776C53.5403 53.776 54.0283 53.656 54.3483 53.416C54.6683 53.184 54.9603 52.712 55.2243 52L52.7643 45.76H54.1083ZM65.9203 47.44L64.1203 50.296H63.0523L61.2523 47.44H61.2283V52H60.0163V45.76H61.4083L63.5803 49.396H63.5923L65.7643 45.76H67.1683V52H65.9323V47.44H65.9203ZM75.2577 52V44.8H75.2337L72.9777 46.84L72.4977 45.76L75.2577 43.24H76.5777V52H75.2577ZM89.0428 51.016H90.1228V53.44H89.0428V52H83.5828V45.76H84.7828V51.016H87.8428V45.76H89.0428V51.016ZM92.6237 45.76V50.296H92.6477L95.7197 45.76H97.0157V52H95.7677V47.464H95.7437L92.6837 52H91.3757V45.76H92.6237ZM103.007 54.64H101.807V51.616H101.783C101.423 51.952 101.011 52.12 100.547 52.12C99.8748 52.12 99.3468 51.848 98.9628 51.304C98.5788 50.76 98.3868 49.952 98.3868 48.88C98.3868 47.808 98.5788 47 98.9628 46.456C99.3468 45.912 99.8748 45.64 100.547 45.64C101.011 45.64 101.423 45.808 101.783 46.144H101.807V43H103.007V46.144H103.031C103.391 45.808 103.803 45.64 104.267 45.64C104.939 45.64 105.467 45.912 105.851 46.456C106.235 47 106.427 47.808 106.427 48.88C106.427 49.952 106.235 50.76 105.851 51.304C105.467 51.848 104.939 52.12 104.267 52.12C103.803 52.12 103.391 51.952 103.031 51.616H103.007V54.64ZM104.003 51.136C104.819 51.136 105.227 50.384 105.227 48.88C105.227 47.376 104.819 46.624 104.003 46.624C103.603 46.624 103.271 46.816 103.007 47.2V50.56C103.271 50.944 103.603 51.136 104.003 51.136ZM100.811 46.624C99.9948 46.624 99.5868 47.376 99.5868 48.88C99.5868 50.384 99.9948 51.136 100.811 51.136C101.211 51.136 101.543 50.944 101.807 50.56V47.2C101.543 46.816 101.211 46.624 100.811 46.624ZM108.982 46.66C109.446 45.98 110.09 45.64 110.914 45.64C111.706 45.64 112.322 45.916 112.762 46.468C113.21 47.012 113.434 47.816 113.434 48.88C113.434 49.928 113.202 50.732 112.738 51.292C112.282 51.844 111.674 52.12 110.914 52.12C110.114 52.12 109.482 51.82 109.018 51.22H108.994V54.64H107.794V45.76H108.934L108.958 46.66H108.982ZM112.258 48.88C112.258 48.12 112.114 47.552 111.826 47.176C111.538 46.792 111.134 46.6 110.614 46.6C110.142 46.6 109.754 46.8 109.45 47.2C109.146 47.592 108.994 48.132 108.994 48.82V48.94C108.994 49.636 109.146 50.18 109.45 50.572C109.754 50.964 110.142 51.16 110.614 51.16C111.11 51.16 111.506 50.964 111.802 50.572C112.106 50.18 112.258 49.616 112.258 48.88ZM118.522 48.904H117.922C117.202 48.904 116.646 49.028 116.254 49.276C115.87 49.524 115.678 49.852 115.678 50.26C115.678 50.556 115.766 50.792 115.942 50.968C116.126 51.136 116.366 51.22 116.662 51.22C117.166 51.22 117.602 51.048 117.97 50.704C118.338 50.352 118.522 49.924 118.522 49.42V48.904ZM114.502 50.32C114.502 49.624 114.794 49.068 115.378 48.652C115.97 48.228 116.818 48.016 117.922 48.016H118.522V47.956C118.522 47.452 118.418 47.1 118.21 46.9C118.01 46.7 117.654 46.6 117.142 46.6C116.382 46.6 115.682 46.78 115.042 47.14L114.862 46.18C115.534 45.82 116.294 45.64 117.142 45.64C118.046 45.64 118.702 45.824 119.11 46.192C119.518 46.552 119.722 47.128 119.722 47.92V50.32C119.722 50.888 119.782 51.448 119.902 52H118.762C118.698 51.648 118.662 51.328 118.654 51.04H118.63C118.406 51.376 118.094 51.64 117.694 51.832C117.302 52.024 116.858 52.12 116.362 52.12C115.794 52.12 115.342 51.96 115.006 51.64C114.67 51.32 114.502 50.88 114.502 50.32Z" fill="#767676"/>
</svg>
